<svg viewBox="0 0 24 24" fill="currentColor" xmlns="http://www.w3.org/2000/svg">
  <path d="M12 2C6.477 2 2 6.477 2 12s4.477 10 10 10 10-4.477 10-10S17.523 2 12 2zm0 1.5a8.5 8.5 0 1 1 0 17 8.5 8.5 0 0 1 0-17zM7.5 9.5a2 2 0 1 0 0 4 2 2 0 0 0 0-4zm9 0a2 2 0 1 0 0 4 2 2 0 0 0 0-4zM12 8c-1.38 0-2.63.47-3.62 1.24L7.5 8.5h-3l1.7 1.7A4.5 4.5 0 0 0 7.5 15.5a4.48 4.48 0 0 0 3-1.15 4.48 4.48 0 0 0 3 1.15 4.5 4.5 0 0 0 1.3-8.8L16.5 8.5h-3l-.88.74A5.97 5.97 0 0 0 12 8zm-4.5 3a1 1 0 1 1 0 2 1 1 0 0 1 0-2zm9 0a1 1 0 1 1 0 2 1 1 0 0 1 0-2z" />
</svg>